<svg id="Layer_4" data-name="Layer 4" xmlns="http://www.w3.org/2000/svg" viewBox="0 0 19.73 19.73"><defs><style>.cls-1{fill:#fff;}.cls-2{fill:#ff7bac;}</style></defs><title>addemoji</title><path class="cls-1" d="M10,19.87A9.87,9.87,0,1,1,19.87,10,9.87,9.87,0,0,1,10,19.87Z" transform="translate(-0.13 -0.13)"/><circle class="cls-2" cx="14.56" cy="6.75" r="1.82"/><circle class="cls-2" cx="5.18" cy="6.75" r="1.82"/><path class="cls-2" d="M10,16.66c-3.12,0-5.67-2.12-5.67-4.72a0.79,0.79,0,0,1,1.58,0c0,1.73,1.83,3.14,4.08,3.14s4.08-1.41,4.08-3.14a0.79,0.79,0,0,1,1.58,0C15.67,14.54,13.12,16.66,10,16.66Z" transform="translate(-0.13 -0.13)"/></svg>