<svg id="Layer_3" data-name="Layer 3" xmlns="http://www.w3.org/2000/svg" viewBox="0 0 19.73 19.73"><defs><style>.cls-1{fill:#fff;}.cls-2{fill:#1f93b7;}.cls-3{fill:#9bdbe8;}</style></defs><title>addimg</title><path class="cls-1" d="M10,19.87A9.87,9.87,0,1,1,19.87,10,9.87,9.87,0,0,1,10,19.87Z" transform="translate(-0.13 -0.13)"/><path class="cls-2" d="M12.25,4.94a5.14,5.14,0,1,1-5.14,5.14,5.14,5.14,0,0,1,5.14-5.14m0-1.53a6.67,6.67,0,1,0,6.67,6.67,6.67,6.67,0,0,0-6.67-6.67h0Z" transform="translate(-0.13 -0.13)"/><circle class="cls-3" cx="4.15" cy="5.47" r="1.73"/><circle class="cls-3" cx="12.12" cy="9.94" r="3.55"/><circle class="cls-1" cx="13.31" cy="8.07" r="1.68"/></svg>