<svg id="Layer_1_copy" data-name="Layer 1 copy" xmlns="http://www.w3.org/2000/svg" viewBox="0 0 83.77 60.03"><defs><style>.cls-1{fill:#492459;}</style></defs><title>eye_intro_1</title><path class="cls-1" d="M56.75,42.7a6.61,6.61,0,0,1-4.83-11.12,13.35,13.35,0,1,0,8.49,10A6.58,6.58,0,0,1,56.75,42.7Z" transform="translate(-3.12 -15)"/><path class="cls-1" d="M45,29c10.66,0,20.1,4.41,25.85,11.14A26.16,26.16,0,0,0,68,32.45a40.3,40.3,0,0,0-23-7,40.3,40.3,0,0,0-23,7,26.16,26.16,0,0,0-2.81,7.65C24.91,33.36,34.35,29,45,29Z" transform="translate(-3.12 -15)"/><path class="cls-1" d="M64,30a39.87,39.87,0,0,0-10.55-3.7,18.81,18.81,0,1,1-8.76-.84A42.35,42.35,0,0,0,33.82,27,21.81,21.81,0,1,0,64,30Z" transform="translate(-3.12 -15)"/><path class="cls-1" d="M86.88,44.54a15,15,0,0,1-13.4-8.25,1.57,1.57,0,0,0-.18-0.52C69.34,23.94,58.16,15,45,15S20.68,25,16.71,35h0a6.6,6.6,0,0,0-.18.91,15.16,15.16,0,0,1-13.4,8.44,15.07,15.07,0,0,1,12.77,7.24,29.83,29.83,0,0,0,58.26,0A15,15,0,0,1,86.88,44.54ZM45,71.58A26.35,26.35,0,1,1,71.37,45.23,26.38,26.38,0,0,1,45,71.58Z" transform="translate(-3.12 -15)"/></svg>