<svg id="Layer_14" data-name="Layer 14" xmlns="http://www.w3.org/2000/svg" viewBox="0 0 26.27 26.27"><defs><style>.cls-1{fill:#f2f2f2;}.cls-2{fill:#ccb4c3;}</style></defs><title>ghostmodebutt</title><path class="cls-1" d="M45,31.86A13.14,13.14,0,1,0,58.14,45,13.14,13.14,0,0,0,45,31.86Z" transform="translate(-31.86 -31.86)"/><path class="cls-2" d="M45,36.46H44.92c-3.25,0-6.05,2.2-6.05,5V52.22a1.46,1.46,0,0,0,2.9,0V50A0.9,0.9,0,0,1,42,49.26,0.89,0.89,0,0,1,42.66,49a1,1,0,0,1,.62.23,0.8,0.8,0,0,1,.27.64v2.24a1.46,1.46,0,0,0,2.9,0V49.91A0.86,0.86,0,0,1,47.34,49a0.87,0.87,0,0,1,.61.24,1,1,0,0,1,.28.77v2.24a1.46,1.46,0,0,0,2.9,0V41.54c0-2.79-2.8-5-6-5.06H45Z" transform="translate(-31.86 -31.86)"/><circle class="cls-1" cx="10.79" cy="11.13" r="1.63"/><circle class="cls-1" cx="15.48" cy="11.11" r="1.63"/></svg>