<svg id="Layer_13" data-name="Layer 13" xmlns="http://www.w3.org/2000/svg" viewBox="0 0 26.27 26.27"><defs><style>.cls-1{fill:#ccb4c3;}</style></defs><title>infobutt</title><path class="cls-1" d="M45.27,31.79A13.14,13.14,0,1,0,58.41,44.92,13.14,13.14,0,0,0,45.27,31.79Zm0,23a9.87,9.87,0,1,1,9.87-9.87A9.87,9.87,0,0,1,45.27,54.79Z" transform="translate(-32.14 -31.79)"/><path class="cls-1" d="M46,42H44a1,1,0,1,0,0,2h1v6.15a1,1,0,1,0,2,0V43.22A1.06,1.06,0,0,0,46,42Z" transform="translate(-32.14 -31.79)"/><circle class="cls-1" cx="13.86" cy="8.17" r="1"/></svg>