<svg id="Layer_3" data-name="Layer 3" xmlns="http://www.w3.org/2000/svg" viewBox="0 0 59.69 59.69"><defs><style>.cls-1{fill:#492459;}</style></defs><title>me_intro_1</title><path class="cls-1" d="M45,74.85A29.85,29.85,0,1,1,74.85,45,29.88,29.88,0,0,1,45,74.85Zm0-56.2A26.36,26.36,0,1,0,71.36,45,26.39,26.39,0,0,0,45,18.64Z" transform="translate(-15.15 -15.15)"/><circle class="cls-1" cx="17.05" cy="29.85" r="4.97"/><path class="cls-1" d="M37.86,62.26a10.37,10.37,0,0,1,7.92-3.47,10.5,10.5,0,0,1,7.14,2.68,10.37,10.37,0,0,0,2.48-6.88v0a1.93,1.93,0,0,0-1.94-2l-16.86,0a2,2,0,0,0-2,1.94v0.05A10.23,10.23,0,0,0,37.86,62.26Z" transform="translate(-15.15 -15.15)"/><circle class="cls-1" cx="42.64" cy="29.85" r="4.97"/></svg>