<svg id="Layer_3_copy_2" data-name="Layer 3 copy 2" xmlns="http://www.w3.org/2000/svg" viewBox="0 0 61.85 59.85"><defs><style>.cls-1{fill:#fdf2de;}.cls-2{fill:#fff;}.cls-3{fill:#492459;}.cls-4{fill:#d80102;}.cls-5{fill:#f5a502;}.cls-6{fill:#ff2d00;}</style></defs><title>me_intro_2</title><circle class="cls-1" cx="32" cy="30" r="24.58"/><circle class="cls-2" cx="44.8" cy="30" r="6.78"/><circle class="cls-2" cx="19.2" cy="30" r="6.78"/><path class="cls-3" d="M45,74.85A29.85,29.85,0,1,1,74.85,45,29.88,29.88,0,0,1,45,74.85Zm0-56.2A26.36,26.36,0,1,0,71.36,45,26.39,26.39,0,0,0,45,18.64Z" transform="translate(-13 -15)"/><circle class="cls-3" cx="19.2" cy="30" r="4.97"/><path class="cls-4" d="M55.39,54.54a1.93,1.93,0,0,0-1.94-2l-16.86,0a2,2,0,0,0-2,1.94v0.05A10.11,10.11,0,0,0,45,64.93,10.11,10.11,0,0,0,55.4,54.58v0Z" transform="translate(-13 -15)"/><path class="cls-5" d="M72.57,33.28a29.82,29.82,0,0,0-49.85-8.19,3.72,3.72,0,0,1-2,1.27c-2.89.65-4.75-2.42-6.42-1.56-1.47.75-1.57,3.91-.87,6.07a8.15,8.15,0,0,0,3.41,4.29A8.23,8.23,0,0,0,18.6,36l0,0a2,2,0,0,0,1.37.7l1,0.2c3.4,0.66,5.09,1,7.63.78a23.63,23.63,0,0,0,9.44-3c3-1.61,2.91-2.26,7.63-5,4.16-2.46,5.46-2.31,6.46-2.59,2.33-.65,5.94-0.44,7.88,1.16,3.64,3,1,7.5,4.78,10.18a7.79,7.79,0,0,0,6.07.88,5.1,5.1,0,0,0,3-2.29A29.61,29.61,0,0,0,72.57,33.28Z" transform="translate(-13 -15)"/><path class="cls-6" d="M37.86,62.26a10.37,10.37,0,0,1,7.92-3.47,10.5,10.5,0,0,1,7.14,2.68,10.37,10.37,0,0,0,2.48-6.88v0a1.93,1.93,0,0,0-1.94-2l-16.86,0a2,2,0,0,0-2,1.94v0.05A10.23,10.23,0,0,0,37.86,62.26Z" transform="translate(-13 -15)"/><circle class="cls-3" cx="44.8" cy="30" r="4.97"/></svg>