<svg id="Layer_2" data-name="Layer 2" xmlns="http://www.w3.org/2000/svg" viewBox="0 0 19.73 19.73"><defs><style>.cls-1{fill:#fff;}.cls-2{fill:#9bdbe8;}</style></defs><title>msgcondup</title><path class="cls-1" d="M10,19.87A9.87,9.87,0,1,1,19.87,10,9.87,9.87,0,0,1,10,19.87Z" transform="translate(-0.13 -0.13)"/><path class="cls-2" d="M10,3.82a0.9,0.9,0,0,1,.64.27L17,10.43a0.91,0.91,0,0,1-1.28,1.28L10.64,6.65a0.91,0.91,0,0,0-1.29,0L4.3,11.71a0.91,0.91,0,0,1-1.28,0,0.91,0.91,0,0,1,0-1.28L9.36,4.08A0.9,0.9,0,0,1,10,3.82Z" transform="translate(-0.13 -0.13)"/><path class="cls-2" d="M10,10.1a0.9,0.9,0,0,1,.64.27l3.71,3.71a0.91,0.91,0,0,1-1.28,1.28l-2.42-2.42a0.91,0.91,0,0,0-1.29,0L6.93,15.36a0.91,0.91,0,1,1-1.28-1.28l3.71-3.71A0.9,0.9,0,0,1,10,10.1Z" transform="translate(-0.13 -0.13)"/></svg>