<svg id="Layer_5" data-name="Layer 5" xmlns="http://www.w3.org/2000/svg" viewBox="0 0 59.69 59.69"><defs><style>.cls-1{fill:#492459;}</style></defs><title>up_intro_1</title><path class="cls-1" d="M45,15.15A29.83,29.83,0,0,0,25.78,67.81a21.44,21.44,0,0,1-8.88,4.06,36.79,36.79,0,0,0,17.54,1A29.84,29.84,0,1,0,45,15.15Zm0,56.2a26.45,26.45,0,0,1-4-.3,29.3,29.3,0,0,0,6.48-3.57,23.92,23.92,0,0,0,4.44-4.2,18.33,18.33,0,0,0,3.19-6,15.71,15.71,0,0,0,.81-3.87A1.54,1.54,0,0,1,57.54,52l3.61-.19c2.54-.11,3.91-1.38,2.57-3l-16.53-20a3.12,3.12,0,0,0-5,0l-1.27,1.59-9,10.8-6.39,7.65c-1.34,1.61-.89,3,1.65,3.08L32,52c1,0,1.56.06,1.86,0.41a1.59,1.59,0,0,1,.38,1.27,22.49,22.49,0,0,1-5.84,11.77A26.34,26.34,0,1,1,45,71.36Z" transform="translate(-15.15 -15.15)"/></svg>