<svg id="Layer_12" data-name="Layer 12" xmlns="http://www.w3.org/2000/svg" viewBox="0 0 52.03 26.27"><defs><style>.cls-1{fill:#ccb4c3;}</style></defs><title>usersignout</title><path class="cls-1" d="M30.1,27.73A13.14,13.14,0,1,0,43.24,40.86,13.14,13.14,0,0,0,30.1,27.73Zm0,23A9.87,9.87,0,1,1,40,40.86,9.87,9.87,0,0,1,30.1,50.73Z" transform="translate(-16.97 -27.73)"/><path class="cls-1" d="M28.2,37.15l-2.42,2.42,7.14,7.14h2.42V44.29Zm-3.1,1.74,2.42-2.42-1.19-1.19a0.62,0.62,0,0,0-.9,0L23.9,36.79a0.62,0.62,0,0,0,0,.9Z" transform="translate(-16.97 -27.73)"/><path class="cls-1" d="M50.54,45.73a4.23,4.23,0,0,1-1.66-.31,3.53,3.53,0,0,1-1.23-.85,3.63,3.63,0,0,1-.76-1.29,5.27,5.27,0,0,1,0-3.29,3.62,3.62,0,0,1,.76-1.29,3.54,3.54,0,0,1,1.23-.85,4.63,4.63,0,0,1,3.32,0,3.53,3.53,0,0,1,1.23.85A3.62,3.62,0,0,1,54.19,40a5.27,5.27,0,0,1,0,3.29,3.63,3.63,0,0,1-.77,1.29,3.52,3.52,0,0,1-1.23.85A4.22,4.22,0,0,1,50.54,45.73Zm0-1.35a2,2,0,0,0,1-.24,2.09,2.09,0,0,0,.69-0.63,2.76,2.76,0,0,0,.4-0.88,3.92,3.92,0,0,0,0-2,2.66,2.66,0,0,0-.4-0.88,2.12,2.12,0,0,0-.69-0.62,2.16,2.16,0,0,0-2,0,2.13,2.13,0,0,0-.69.62,2.66,2.66,0,0,0-.4.88,4,4,0,0,0,0,2,2.76,2.76,0,0,0,.4.88,2.1,2.1,0,0,0,.69.63A2,2,0,0,0,50.54,44.38Z" transform="translate(-16.97 -27.73)"/><path class="cls-1" d="M63.06,45.52H61.38V44.44h0a2.35,2.35,0,0,1-.94.94,2.55,2.55,0,0,1-1.27.35A2.85,2.85,0,0,1,56.93,45a3.33,3.33,0,0,1-.68-2.29V37.77H58v4.75A2.1,2.1,0,0,0,58.35,44a1.42,1.42,0,0,0,1.1.42,2.15,2.15,0,0,0,.9-0.17,1.58,1.58,0,0,0,.58-0.44,1.68,1.68,0,0,0,.32-0.67,3.43,3.43,0,0,0,.1-0.84v-4.5h1.71v7.75Z" transform="translate(-16.97 -27.73)"/><path class="cls-1" d="M64.46,37.77h1.29V35.44h1.71v2.33H69V39H67.46v4.14a4,4,0,0,0,0,.46,0.8,0.8,0,0,0,.1.33,0.5,0.5,0,0,0,.25.2,1.21,1.21,0,0,0,.45.07h0.36A1.8,1.8,0,0,0,69,44.19v1.32l-0.56.06a5,5,0,0,1-.55,0,3.79,3.79,0,0,1-1.09-.13,1.45,1.45,0,0,1-.64-0.37,1.29,1.29,0,0,1-.32-0.62,4.7,4.7,0,0,1-.1-0.85V39H64.46V37.77Z" transform="translate(-16.97 -27.73)"/></svg>